<svg xmlns="http://www.w3.org/2000/svg" width="89.524" height="89.509" viewBox="0 0 89.524 89.509">
  <path id="donations" d="M63.862,22.9H58.415l-.073.012-.056.009a.263.263,0,0,0-.061.016l-.061.016-.065.023L58.043,23l-.075.037-.038.019-.065.038-.044.028c-.017.01-.033.024-.051.037a.594.594,0,0,0-.052.04l-.04.037-.058.052c-.01.01-.019.023-.028.033l-.051.058-.045.049c-.012.017-.026.035-.038.054l-.033.054-.031.056c-.01.019-.019.038-.028.058l-.026.059-.017.068a.626.626,0,0,0-.021.061l-.016.061a.407.407,0,0,1-.014.063.209.209,0,0,1-.01.065c-.01.021,0,.042,0,.063v.2a.3.3,0,0,0,0,.056.157.157,0,0,0,.009.063l.01.065a.069.069,0,0,0,.012.047c.012.016.012.051.021.077s0,.024.012.037l.03.082.028.058c.01.019.017.038.028.056l.035.058.031.051a.471.471,0,0,0,.035.047l.044.058.035.037c.017.021.035.04.054.059h0L69.123,36.252a1.311,1.311,0,1,0,1.823-1.885L61.8,25.524h2.066A7.739,7.739,0,0,0,71.481,19.1h2.255a1.311,1.311,0,1,0,0-2.622H71.481a7.692,7.692,0,0,0-1.82-3.8h4.075a1.311,1.311,0,1,0,0-2.622H58.555a1.311,1.311,0,0,0,0,2.622h5.308a5.114,5.114,0,0,1,4.935,3.8H58.555a1.311,1.311,0,0,0,0,2.622H68.8A5.115,5.115,0,0,1,63.862,22.9ZM89.488,60.972a5.458,5.458,0,0,0-7.042-4.911L62.286,62.194a5.7,5.7,0,0,0-3.3-4.072l-13.136-5.71a20.683,20.683,0,0,0-14.176-.839l-6.189,1.862-.082-.477a4.288,4.288,0,0,0-4.967-3.482L9.924,51.29h0L1.066,52.827a1.315,1.315,0,1,0,.448,2.593l7.565-1.313L14.363,84.6l-13.3,2.306a1.311,1.311,0,0,0,.222,2.6,1.4,1.4,0,0,0,.226-.019L26.62,85.139a4.3,4.3,0,0,0,3.5-4.961l-.3-1.748.374-.087a5.607,5.607,0,0,1,2.448-.014l23.4,5.159a11.173,11.173,0,0,0,2.416.253,11.292,11.292,0,0,0,6.586-2.115L87.215,65.734A5.439,5.439,0,0,0,89.488,60.972ZM26.172,82.554l-9.225,1.6-5.285-30.5,9.225-1.6a1.668,1.668,0,0,1,1.923,1.36l4.72,27.213A1.671,1.671,0,0,1,26.172,82.554ZM85.68,63.6,63.511,79.506a8.689,8.689,0,0,1-6.919,1.421L33.2,75.76a8.217,8.217,0,0,0-3.6.021l-.227.054L25.933,56.043l6.493-1.955a18.054,18.054,0,0,1,12.376.729l13.138,5.71a3.072,3.072,0,0,1,1.813,3.236,2.651,2.651,0,0,1-.063.32,3.052,3.052,0,0,1-3.645,2.246l-7.465-1.684A1.312,1.312,0,0,0,48,67.206l7.463,1.675a5.675,5.675,0,0,0,6.7-3.916l21.029-6.4A2.843,2.843,0,0,1,85.68,63.6ZM66.146,46.678a23.335,23.335,0,1,0-16.506-6.83A23.342,23.342,0,0,0,66.146,46.678ZM51.5,8.691a20.72,20.72,0,1,1,0,29.3,20.72,20.72,0,0,1,0-29.3Z" transform="translate(0.026 0)" fill="#26cc8c"/>
</svg>
