<svg xmlns="http://www.w3.org/2000/svg" width="112.121" height="88.602" viewBox="0 0 112.121 88.602">
  <path id="prayers" d="M53.2,74.714a4.537,4.537,0,0,0-.411-3.389A3.2,3.2,0,0,0,49.9,69.679c.491-1.52,1.008-3,1.583-4.355A3.92,3.92,0,0,0,47.989,59.9a4.269,4.269,0,1,0-7.643-3.8c-.214.441-.409.877-.618,1.317a3.922,3.922,0,0,0-6.381.644c-3.82,6.977-8.163,12.706-11.244,22.532-1.549,4.919-2.833,9.838-3.858,14.665a40.677,40.677,0,0,1-3.9-4.9c-3.811-5.578-8.6-7.592-12.8-5.394a2.868,2.868,0,0,0-.9,4.367c2.744,3.885,5.437,5.067,11.4,17.492a52.318,52.318,0,0,0,6.833,11.506,14.669,14.669,0,0,1,2.961,12.83,63.287,63.287,0,0,1-3.275,9.519,1.168,1.168,0,0,0,1.073,1.628h25.53a1.17,1.17,0,0,0,1.12-.835c2.119-6.724,2.228-8.574,3.74-10.757C60.931,114.8,47.452,97.457,53.2,74.714ZM48.11,129.386C46.3,132,46.075,134.441,44.3,139.966H21.4a63.311,63.311,0,0,0,2.718-8.248,17.01,17.01,0,0,0-3.428-14.884,50.531,50.531,0,0,1-6.526-11.027C7.972,92.913,5.493,92.145,2.468,87.86a.544.544,0,0,1,.161-.83c4.4-2.3,8.309,2.478,9.79,4.643,3.663,5.329,7.151,8.589,10.976,10.26a1.168,1.168,0,0,0,.935-2.141,16.672,16.672,0,0,1-4.1-2.649,155.166,155.166,0,0,1,4.1-15.856c3-9.582,7.154-14.967,11.05-22.086A1.594,1.594,0,0,1,38,58.978a1.627,1.627,0,0,1,.3,1.483A127.55,127.55,0,0,0,29.48,86.923a1.168,1.168,0,0,0,2.288.47,131.65,131.65,0,0,1,10.679-30.28,1.94,1.94,0,1,1,3.426,1.816A82.673,82.673,0,0,0,36.993,87a1.168,1.168,0,0,0,2.315.316,81.561,81.561,0,0,1,7.1-24.275,1.619,1.619,0,0,1,2.923,1.373c-3.16,7.46-5.077,18.053-6.3,26.056a1.168,1.168,0,1,0,2.308.353,160.438,160.438,0,0,1,3.693-18.261.992.992,0,0,1,1.716-.1,2.237,2.237,0,0,1,.193,1.663C45.1,97.246,58.226,114.615,48.11,129.386Zm62.472-44.425c-4.2-2.2-8.986-.187-12.8,5.389a40.68,40.68,0,0,1-3.9,4.9C89.193,73.178,84.6,68.674,78.767,58.03a3.925,3.925,0,0,0-6.368-.622c-.208-.439-.4-.875-.617-1.315a4.269,4.269,0,1,0-7.643,3.8,3.92,3.92,0,0,0-3.491,5.427c.575,1.358,1.092,2.835,1.583,4.354a3.193,3.193,0,0,0-2.881,1.632,4.538,4.538,0,0,0-.423,3.383c5.747,22.746-7.74,40.092,3.17,56.021,1.5,2.17,1.607,4,3.736,10.753a1.17,1.17,0,0,0,1.12.835h25.53a1.168,1.168,0,0,0,1.073-1.628,63.186,63.186,0,0,1-3.274-9.517,14.668,14.668,0,0,1,2.961-12.833c6.423-7.773,7.346-15.672,14.848-24.845l3.4-4.163A2.887,2.887,0,0,0,110.582,84.961Zm-.913,2.888-3.405,4.175c-7.657,9.361-8.675,17.373-14.819,24.81a17.008,17.008,0,0,0-3.428,14.886,63.179,63.179,0,0,0,2.717,8.246H67.824c-1.789-5.579-2.009-7.983-3.8-10.576C53.9,114.612,67.046,97.3,61.186,74.1a2.238,2.238,0,0,1,.205-1.656.993.993,0,0,1,1.709.118,160.442,160.442,0,0,1,3.693,18.261,1.168,1.168,0,0,0,2.309-.353c-1.227-8.008-3.144-18.6-6.3-26.056a1.619,1.619,0,0,1,2.923-1.373,81.554,81.554,0,0,1,7.1,24.275A1.168,1.168,0,0,0,75.135,87,82.672,82.672,0,0,0,66.254,58.93a1.94,1.94,0,1,1,3.426-1.816,131.445,131.445,0,0,1,10.679,30.28,1.168,1.168,0,0,0,2.288-.47A127.583,127.583,0,0,0,73.82,60.462a1.638,1.638,0,0,1,.314-1.5,1.594,1.594,0,0,1,2.6.212C82.29,69.328,87.246,74.111,91.9,97.144a16.673,16.673,0,0,1-4.1,2.65,1.168,1.168,0,0,0,.935,2.141c3.825-1.67,7.313-4.93,10.977-10.262,1.479-2.163,5.39-6.948,9.792-4.639A.559.559,0,0,1,109.669,87.85Z" transform="translate(0.002 -53.701)" fill="#ffa517"/>
</svg>
