<svg xmlns="http://www.w3.org/2000/svg" width="96.213" height="75.133" viewBox="0 0 96.213 75.133">
  <path id="support" d="M95.618,99.437a3.7,3.7,0,0,0-4.556-1.745,113.73,113.73,0,0,0-20.81,10.069,5.617,5.617,0,0,0-5.351-3.931H53.7a19.274,19.274,0,0,1-11.237-3.19c-6.44-4.492-13.183-4.755-18.991-.737-2.016,1.412-4.31,1.679-6.621,1.85a5.023,5.023,0,0,0-4.713-3.326H3.007A3.01,3.01,0,0,0,0,101.434v24.759A3.01,3.01,0,0,0,3.007,129.2h9.13a5.02,5.02,0,0,0,4.974-4.471c9.719-1.822,20.076-.03,31.635,5.482a9.962,9.962,0,0,0,9.682-.514c8.509-5.4,27.362-18.186,35.647-23.809A4.962,4.962,0,0,0,95.618,99.437ZM15.163,124.17a3.029,3.029,0,0,1-3.026,3.026H3.007a1,1,0,0,1-1-1V101.434a1,1,0,0,1,1-1h9.13a3.026,3.026,0,0,1,3.02,2.973C15.163,103.686,15.163,124.069,15.163,124.17Zm77.784-19.939C84.727,109.81,65.866,122.606,57.356,128a7.965,7.965,0,0,1-7.745.4c-10.335-4.928-21.255-7.709-32.443-5.731,0-21.5,0-16.932,0-18.931,2.69-.193,5.154-.582,7.449-2.191,5.067-3.5,11-3.243,16.7.737a21.3,21.3,0,0,0,12.4,3.549H64.9c4.076,0,5,5.949,1.21,7.348-7.491,2.763-14.066,1.644-22.487.948a1,1,0,0,0-.165,2c8.466.7,15.459,1.845,23.347-1.065a5.455,5.455,0,0,0,3.681-5.071,109.9,109.9,0,0,1,21.28-10.424,1.722,1.722,0,0,1,2.118.868A2.944,2.944,0,0,1,92.947,104.231ZM55.253,97.17a1,1,0,0,0,.829,0c.93-.422,22.782-10.542,22.782-27.772,0-12.158-15.1-17.944-23.2-8.878-8.1-9.068-23.2-3.275-23.2,8.878C32.47,86.628,54.323,96.748,55.253,97.17Zm-.4-34.466a1.038,1.038,0,0,0,1.619,0c6.4-8.764,20.383-4.194,20.383,6.695,0,14.7-18.194,24.27-21.192,25.747-3-1.477-21.193-11.052-21.193-25.747C34.475,58.5,48.463,53.943,54.858,62.7Z" transform="translate(0 -56.09)" fill="#ff5528"/>
</svg>
