<svg xmlns="http://www.w3.org/2000/svg" width="78.924" height="78.924" viewBox="0 0 78.924 78.924">
  <path id="volunteers" d="M79.217,67.583l-19.29-8.511c.156-.41.245-.673.262-.724a1.128,1.128,0,0,0-.626-1.394l-3.847-1.643A27.875,27.875,0,0,0,61.262,44.6a27.42,27.42,0,0,0,6.877-18.425C68.139,13.113,59.066,5,44.462,5S20.785,13.113,20.785,26.171A27.429,27.429,0,0,0,27.662,44.6a27.873,27.873,0,0,0,5.547,10.714l-3.847,1.643a1.128,1.128,0,0,0-.626,1.394c.017.051.106.314.262.724L9.707,67.583A7.894,7.894,0,0,0,5,74.8V82.8a1.127,1.127,0,0,0,1.127,1.127H82.8A1.127,1.127,0,0,0,83.924,82.8V74.8A7.894,7.894,0,0,0,79.217,67.583ZM35.872,54.93l-.008-.008A26.212,26.212,0,0,1,29.85,43.9a1.074,1.074,0,0,0-.044-.157,31.37,31.37,0,0,1-1.13-8.3V27.281c2.019-.619,6.962-2.52,9.381-6.849,2.091,1.925,6.444,5.59,9.65,5.981a20.38,20.38,0,0,0,5.36-.5c2.487-.433,5.586-.969,6.73-.146a1.1,1.1,0,0,1,.449.755v8.923a31.37,31.37,0,0,1-1.129,8.3,1.074,1.074,0,0,0-.047.17,26.205,26.205,0,0,1-6.011,11.014l-.008.008c-2.525,2.615-5.506,4.189-8.589,4.189S38.4,57.545,35.872,54.93ZM23.04,26.171c0-11.845,8.008-18.916,21.422-18.916s21.422,7.071,21.422,18.916a25.709,25.709,0,0,1-3.639,13.338,35.348,35.348,0,0,0,.257-4.067v-9.02a1.146,1.146,0,0,0-.013-.174,3.378,3.378,0,0,0-1.376-2.318c-1.916-1.371-5.227-.8-8.43-.242a19.928,19.928,0,0,1-4.7.488c-2.84-.347-7.811-4.769-9.487-6.443a1.128,1.128,0,0,0-1.855.406c-2.011,5.448-9.266,7.167-9.339,7.184a1.128,1.128,0,0,0-.878,1.1v9.02a35.359,35.359,0,0,0,.257,4.068A25.714,25.714,0,0,1,23.04,26.171ZM34.865,57.057c2.955,2.761,6.345,4.317,9.6,4.317s6.642-1.556,9.6-4.317l3.628,1.549a30.884,30.884,0,0,1-6.13,9.863c-1.109,1.111-1.841.951-2.083.9-1.839-.4-3.515-3.833-3.957-5.005,0-.007-.008-.013-.011-.02a1.1,1.1,0,0,0-.054-.1,1.11,1.11,0,0,0-.158-.235,1.076,1.076,0,0,0-.1-.1,1.105,1.105,0,0,0-.216-.146,1.091,1.091,0,0,0-.122-.06,1.112,1.112,0,0,0-.368-.074c-.008,0-.015,0-.023,0s-.015,0-.023,0a1.112,1.112,0,0,0-.368.074,1.064,1.064,0,0,0-.122.06,1.1,1.1,0,0,0-.216.146,1.084,1.084,0,0,0-.1.1,1.106,1.106,0,0,0-.159.235,1.079,1.079,0,0,0-.054.1c0,.007-.009.013-.011.02-.443,1.173-2.118,4.609-3.957,5.005-.24.055-.973.215-2.083-.9A30.952,30.952,0,0,1,31.238,58.6ZM7.255,74.8a5.638,5.638,0,0,1,3.362-5.157l19.253-8.494a31.1,31.1,0,0,0,5.9,8.912,4.418,4.418,0,0,0,4.156,1.506,6.255,6.255,0,0,0,3.406-2.477V81.669H7.255Zm74.414,6.865H45.589V69.092a6.255,6.255,0,0,0,3.406,2.478,3.811,3.811,0,0,0,.8.086,4.724,4.724,0,0,0,3.359-1.592,31.1,31.1,0,0,0,5.9-8.912l19.253,8.494A5.638,5.638,0,0,1,81.669,74.8Z" transform="translate(-5 -5)" fill="#3ab7d1"/>
</svg>
